# xmcd
#
# Track frame offsets:
#	150
#	12628
#	26604
#	41905
#	59468
#	73571
#	94721
#	108133
#	128833
#	144883
#	163245
#	169620
#	184320
#	193566
#
# Disc length: 2637 seconds
#
# Revision: 1
# Processed by: cddbd v1.5.2PL0 Copyright (c) Steve Scherf et al.
# Submitted via: audiograbber 1.83.01
#
DISCID=c10a4b0e
DTITLE=Andy and Pedro - Flesh and Blood
DYEAR=2005
DGENRE=Country
TTITLE0=Don´t rock the jukebox
TTITLE1=Folsom prison blues
TTITLE2=Jambalaya
TTITLE3=Luckenbach Texas
TTITLE4=Flesh and Blood
TTITLE5=Margaritaville
TTITLE6=Hey good lookin´
TTITLE7=Ghostriders
TTITLE8=It´s my life
TTITLE9=Can´t find my way home
TTITLE10=Honky Tonk heroes
TTITLE11=Jamba Blues
TTITLE12=My rifle, my pony and me
TTITLE13=Danksagung
EXTD=
EXTT0=
EXTT1=
EXTT2=
EXTT3=
EXTT4=
EXTT5=
EXTT6=
EXTT7=
EXTT8=
EXTT9=
EXTT10=
EXTT11=
EXTT12=
EXTT13=
PLAYORDER=
